<svg width="512" height="512" viewBox="0 0 512 512">
    <path
        d="m28.70001,18.70996c-1.19.37-2.42999.57001-3.66998.57001-6.78003,0-12.29999-5.51996-12.29999-12.31,0-1.26996.19-2.51001.56-3.66998.10999-.34998.01996-.73999-.25-1-.26001-.27002-.64001-.35999-1-.26001C6.03003,3.89996,1.98999,9.39001,1.98999,15.70001c0,7.88995,6.42004,14.29999,14.30005,14.29999,6.29999,0,11.79999-4.04004,13.66998-10.04004.10999-.35999.02002-.75-.25-1.00995-.26001-.26001-.65002-.36005-1.01001-.24005Z" />
</svg>